<?xml version="1.0" encoding="utf-8"?>
<!-- Generator: Adobe Illustrator 16.0.0, SVG Export Plug-In . SVG Version: 6.00 Build 0)  -->
<!DOCTYPE svg PUBLIC "-//W3C//DTD SVG 1.1//EN" "http://www.w3.org/Graphics/SVG/1.1/DTD/svg11.dtd">
<svg version="1.1" id="图层_1" xmlns="http://www.w3.org/2000/svg" xmlns:xlink="http://www.w3.org/1999/xlink" x="0px" y="0px"
	 width="12px" height="12px" viewBox="0 0 12 12" enable-background="new 0 0 12 12" xml:space="preserve">
<title>button－收回</title>
<desc>Created with Sketch.</desc>
<g id="Symbols">
	<g id="button_xFF0D_收回">
		<defs>
			<filter id="Adobe_OpacityMaskFilter" filterUnits="userSpaceOnUse" x="-1" y="-1" width="14" height="14">
				<feColorMatrix  type="matrix" values="1 0 0 0 0  0 1 0 0 0  0 0 1 0 0  0 0 0 1 0"/>
			</filter>
		</defs>
		<mask maskUnits="userSpaceOnUse" x="-1" y="-1" width="14" height="14" id="mask-2">
			<g filter="url(#Adobe_OpacityMaskFilter)">
				<path id="path-1" fill="#FFFFFF" d="M2,0h8c1.104,0,2,0.896,2,2v8c0,1.104-0.896,2-2,2H2c-1.104,0-2-0.896-2-2V2
					C0,0.896,0.896,0,2,0z"/>
			</g>
		</mask>
		<g mask="url(#mask-2)">
			<g id="Rectangle-Copy">
				<path id="path-1_1_" fill="#FFFFFF" stroke="#60B0FF" stroke-width="2" d="M2,0h8c1.104,0,2,0.896,2,2v8c0,1.104-0.896,2-2,2H2
					c-1.104,0-2-0.896-2-2V2C0,0.896,0.896,0,2,0z"/>
			</g>
			<rect id="Combined-Shape-Copy" x="3" y="5" fill="#60B0FF" width="6" height="2"/>
		</g>
	</g>
</g>
</svg>
