<?xml version="1.0" encoding="utf-8"?>
<svg version="1.1" xmlns:xlink="http://www.w3.org/1999/xlink" width="438px" height="192px" xmlns="http://www.w3.org/2000/svg">
  <g transform="matrix(1 0 0 1 -33 -41 )">
    <path d="M 34 47  A 5 5 0 0 1 39 42 L 465 42  A 5 5 0 0 1 470 47 L 470 227  A 5 5 0 0 1 465 232 L 39 232  A 5 5 0 0 1 34 227 L 34 47  Z " fill-rule="nonzero" fill="#000000" stroke="none" fill-opacity="0.0196078431372549" />
    <path d="M 33.5 47  A 5.5 5.5 0 0 1 39 41.5 L 465 41.5  A 5.5 5.5 0 0 1 470.5 47 L 470.5 227  A 5.5 5.5 0 0 1 465 232.5 L 39 232.5  A 5.5 5.5 0 0 1 33.5 227 L 33.5 47  Z " stroke-width="1" stroke-dasharray="9,4" stroke="#108ee9" fill="none" stroke-dashoffset="0.5" />
  </g>
</svg>